<svg xmlns="http://www.w3.org/2000/svg" xmlns:xlink="http://www.w3.org/1999/xlink" xmlns:lucid="lucid" width="1452" height="673"><g transform="translate(-373.9999999999999 -119)" lucid:page-tab-id="yGr2AhzdcpYZ"><g filter="url(#a)"><path d="M700 126a6 6 0 0 1 6-6h788a6 6 0 0 1 6 6v148a6 6 0 0 1-6 6H706a6 6 0 0 1-6-6z" stroke="#fff7a1" stroke-width="2" fill="#fcfcca"/><use xlink:href="#b" transform="matrix(1,0,0,1,705,125) translate(0 21.52777777777778)"/></g><g filter="url(#c)"><path d="M700 306a6 6 0 0 1 6-6h788a6 6 0 0 1 6 6v288a6 6 0 0 1-6 6H706a6 6 0 0 1-6-6z" stroke="#6db1ff" stroke-width="2" fill="#cfe4ff"/><use xlink:href="#d" transform="matrix(1,0,0,1,705,305) translate(0 21.52777777777778)"/><use xlink:href="#e" transform="matrix(1,0,0,1,705,305) translate(146.6579861111111 21.52777777777778)"/></g><g filter="url(#f)"><path d="M740 346a6 6 0 0 1 6-6h708a6 6 0 0 1 6 6v48a6 6 0 0 1-6 6H746a6 6 0 0 1-6-6z" stroke="#4c535d" stroke-width="2" fill="#fff"/><use xlink:href="#g" transform="matrix(1,0,0,1,745,345) translate(250.15603298611111 34.02777777777778)"/><use xlink:href="#h" transform="matrix(1,0,0,1,745,345) translate(317.7775607638889 34.02777777777778)"/><use xlink:href="#i" transform="matrix(1,0,0,1,745,345) translate(368.64561631944446 34.02777777777778)"/></g><g filter="url(#f)"><path d="M740 426a6 6 0 0 1 6-6h708a6 6 0 0 1 6 6v48a6 6 0 0 1-6 6H746a6 6 0 0 1-6-6z" stroke="#4c535d" stroke-width="2" fill="#fff"/><use xlink:href="#j" transform="matrix(1,0,0,1,745,425) translate(329.5939670138889 34.02777777777778)"/></g><g filter="url(#k)"><path d="M380 262.32a6 6 0 0 1 6-6h208a6 6 0 0 1 6 6V479.8a6 6 0 0 1-6 6H386a6 6 0 0 1-6-6z" stroke="#ced4db" stroke-width="2" fill="#f2f3f5"/><use xlink:href="#l" transform="matrix(1,0,0,1,384.9999999999999,261.31578943848757) translate(0 21.52777777777778)"/><use xlink:href="#m" transform="matrix(1,0,0,1,384.9999999999999,261.31578943848757) translate(88.74782986111111 21.52777777777778)"/></g><g filter="url(#n)"><path d="M380 546a6 6 0 0 1 6-6h208a6 6 0 0 1 6 6v168a6 6 0 0 1-6 6H386a6 6 0 0 1-6-6z" stroke="#ced4db" stroke-width="2" fill="#f2f3f5"/><use xlink:href="#o" transform="matrix(1,0,0,1,384.9999999999999,545) translate(0 21.52777777777778)"/><use xlink:href="#p" transform="matrix(1,0,0,1,384.9999999999999,545) translate(0 48.415798611111114)"/></g><g filter="url(#a)"><path d="M700 626a6 6 0 0 1 6-6h788a6 6 0 0 1 6 6v148a6 6 0 0 1-6 6H706a6 6 0 0 1-6-6z" stroke="#54c45e" stroke-width="2" fill="#e3fae3"/><use xlink:href="#q" transform="matrix(1,0,0,1,704.9999999999998,625) translate(0 21.52777777777778)"/><use xlink:href="#r" transform="matrix(1,0,0,1,704.9999999999998,625) translate(55.36024305555556 21.52777777777778)"/><use xlink:href="#s" transform="matrix(1,0,0,1,704.9999999999998,625) translate(140.98307291666666 21.52777777777778)"/></g><g filter="url(#t)"><path d="M1000 686a6 6 0 0 1 6-6h188a6 6 0 0 1 6 6v48a6 6 0 0 1-6 6h-188a6 6 0 0 1-6-6z" stroke="#4c535d" stroke-width="2" fill="#fff"/><use xlink:href="#u" transform="matrix(1,0,0,1,1004.9999999999995,685) translate(19.225043402777786 34.02777777777778)"/><use xlink:href="#v" transform="matrix(1,0,0,1,1004.9999999999995,685) translate(68.86697048611111 34.02777777777778)"/></g><g filter="url(#t)"><path d="M740 686a6 6 0 0 1 6-6h188a6 6 0 0 1 6 6v48a6 6 0 0 1-6 6H746a6 6 0 0 1-6-6z" stroke="#4c535d" stroke-width="2" fill="#fff"/><use xlink:href="#w" transform="matrix(1,0,0,1,744.9999999999995,685) translate(33.74327256944446 34.02777777777778)"/><use xlink:href="#x" transform="matrix(1,0,0,1,744.9999999999995,685) translate(74.33572048611111 34.02777777777778)"/></g><g filter="url(#t)"><path d="M1260 686a6 6 0 0 1 6-6h188a6 6 0 0 1 6 6v48a6 6 0 0 1-6 6h-188a6 6 0 0 1-6-6z" stroke="#4c535d" stroke-width="2" fill="#fff"/><use xlink:href="#q" transform="matrix(1,0,0,1,1264.9999999999995,685) translate(25.306857638888886 34.02777777777778)"/><use xlink:href="#y" transform="matrix(1,0,0,1,1264.9999999999995,685) translate(80.66710069444444 34.02777777777778)"/></g><g filter="url(#z)"><path d="M740 506a6 6 0 0 1 6-6h348a6 6 0 0 1 6 6v48a6 6 0 0 1-6 6H746a6 6 0 0 1-6-6z" stroke="#4c535d" stroke-width="2" fill="#fff"/><use xlink:href="#A" transform="matrix(1,0,0,1,745,505) translate(110.63368055555557 34.02777777777778)"/><use xlink:href="#B" transform="matrix(1,0,0,1,745,505) translate(156.52126736111114 34.02777777777778)"/></g><g filter="url(#C)"><path d="M1600 497.58a6 6 0 0 1 6-6h208a6 6 0 0 1 6 6v68a6 6 0 0 1-6 6h-208a6 6 0 0 1-6-6z" stroke="#ced4db" stroke-width="2" fill="#f2f3f5"/><use xlink:href="#D" transform="matrix(1,0,0,1,1605,496.57894734495653) translate(0 21.52777777777778)"/><use xlink:href="#E" transform="matrix(1,0,0,1,1605,496.57894734495653) translate(96.24565972222223 21.52777777777778)"/></g><g filter="url(#F)"><path d="M1600 342.32a6 6 0 0 1 6-6h208a6 6 0 0 1 6 6v57.47a6 6 0 0 1-6 6h-208a6 6 0 0 1-6-6z" stroke="#ced4db" stroke-width="2" fill="#f2f3f5"/><use xlink:href="#G" transform="matrix(1,0,0,1,1605,341.3157895323454) translate(0 21.52777777777778)"/><use xlink:href="#E" transform="matrix(1,0,0,1,1605,341.3157895323454) translate(59.84157986111111 21.52777777777778)"/></g><g filter="url(#f)"><path d="M740 186a6 6 0 0 1 6-6h708a6 6 0 0 1 6 6v48a6 6 0 0 1-6 6H746a6 6 0 0 1-6-6z" stroke="#4c535d" stroke-width="2" fill="#fff"/><use xlink:href="#H" transform="matrix(1,0,0,1,744.9999999999998,185) translate(323.2517361111111 34.02777777777778)"/></g><path d="M620 371.05h7.5m15 0h14.07m13.13 0h6.56" stroke="#979ea8" stroke-width="4" fill="none"/><path d="M605 371.05l13-7.5v15zM692.53 371.05l-14.27 4.64v-9.28z" stroke="#979ea8" stroke-width="4" fill="#979ea8"/><path d="M620 630h6m12 0h6l.94-.07.9-.22.88-.35.8-.5.72-.6.6-.72.5-.8.37-.88.23-.9.07-.95v-8.56m0-17.12V581.2m0-17.1v-17.13m0-17.12v-17.12m0-17.12v-8.55l.07-.94.22-.9.35-.87.5-.8.6-.72.72-.6.8-.5.88-.35.9-.22.95-.08h20.26" stroke="#979ea8" stroke-width="4" fill="none"/><path d="M605 630l13-7.5v15zM692.53 481.05l-14.27 4.64v-9.28z" stroke="#979ea8" stroke-width="4" fill="#979ea8"/><path d="M1580 371.05H1573m-14.07 0h-14.06m-14.07 0h-7.03" stroke="#979ea8" stroke-width="4" fill="none"/><path d="M1595 371.05l-13 7.5v-15zM1507.47 371.05l14.27-4.63v9.27z" stroke="#979ea8" stroke-width="4" fill="#979ea8"/><path d="M1520 531.58h7.02m14.07 0h14.06m14.07 0h7.03" stroke="#979ea8" stroke-width="4" fill="none"/><path d="M1505 531.58l13-7.5v15zM1592.53 531.58l-14.27 4.63v-9.26z" stroke="#979ea8" stroke-width="4" fill="#979ea8"/><g filter="url(#I)"><path d="M400 311.8a6 6 0 0 1 6-6h168a6 6 0 0 1 6 6v48a6 6 0 0 1-6 6H406a6 6 0 0 1-6-6z" stroke="#4c535d" stroke-width="2" fill="#fff"/><use xlink:href="#J" transform="matrix(1,0,0,1,404.99999999999983,310.7894736255494) translate(35.97200520833334 34.02777777777778)"/></g><g filter="url(#I)"><path d="M400 391.8a6 6 0 0 1 6-6h168a6 6 0 0 1 6 6v48a6 6 0 0 1-6 6H406a6 6 0 0 1-6-6z" stroke="#4c535d" stroke-width="2" fill="#fff"/><use xlink:href="#K" transform="matrix(1,0,0,1,404.9999999999997,390.7894736255494) translate(57.57573784722223 34.02777777777778)"/></g><g filter="url(#I)"><path d="M400 626a6 6 0 0 1 6-6h168a6 6 0 0 1 6 6v48a6 6 0 0 1-6 6H406a6 6 0 0 1-6-6z" stroke="#4c535d" stroke-width="2" fill="#fff"/><use xlink:href="#L" transform="matrix(1,0,0,1,404.99999999999983,625) translate(19.701388888888886 34.02777777777778)"/></g><g filter="url(#M)"><path d="M1120 506a6 6 0 0 1 6-6h328a6 6 0 0 1 6 6v48a6 6 0 0 1-6 6h-328a6 6 0 0 1-6-6z" stroke="#4c535d" stroke-width="2" fill="#ffdda6"/><use xlink:href="#N" transform="matrix(1,0,0,1,1125,505) translate(137.24392361111111 34.02777777777778)"/></g><defs><path fill="#4c535d" d="M786 20C389 20 94-260 94-744c0-487 299-766 692-766 339 0 597 194 641 529h-309c-28-162-156-258-326-258-233 0-388 179-388 495 0 323 157 493 387 493 170 0 298-97 328-259h309c-34 277-266 530-642 530" id="O"/><path fill="#4c535d" d="M628 22C291 22 81-210 81-554c0-346 210-578 547-578 336 0 547 232 547 578 0 344-211 576-547 576zm0-236c160 0 242-146 242-341 0-197-82-341-242-341S387-753 387-555c0 195 81 341 241 341" id="P"/><path fill="#4c535d" d="M428-647V0H128v-1118h283l4 231c63-156 176-245 348-245 232 0 384 159 384 421V0H847v-659c0-139-76-222-202-222-128 0-217 86-217 234" id="Q"/><path fill="#4c535d" d="M572 22C302 22 117-98 78-306l279-48c29 105 101 156 224 156 114 0 185-48 185-115 0-118-228-130-337-155-215-49-322-150-322-317 0-215 187-347 470-347 265 0 424 116 466 298l-266 47c-24-76-87-130-196-130-98 0-174 46-174 113 0 56 38 95 144 117l201 40c216 44 320 143 320 302 0 220-207 367-500 367" id="R"/><path fill="#4c535d" d="M513 14c-232 0-385-159-385-421v-711h300v659c0 139 76 222 202 222 127 0 217-86 217-234v-647h301V0H864l-4-232C797-74 683 14 513 14" id="S"/><path fill="#4c535d" d="M128 0v-1118h278l12 217c60-163 185-234 319-234 143 0 236 81 288 251 63-172 205-251 359-251 205 0 357 138 357 381V0h-301v-697c0-126-76-187-177-187-114 0-184 79-184 196V0H789v-705c0-109-72-179-174-179-106 0-187 74-187 208V0H128" id="T"/><path fill="#4c535d" d="M633 22C291 22 81-200 81-553c0-345 210-579 537-579 292 0 525 185 525 567v84H378c7 183 109 277 260 277 105 0 184-46 216-132l272 51C1071-99 893 22 633 22zM380-669h474c-15-146-94-237-233-237-143 0-229 99-241 237" id="U"/><path fill="#4c535d" d="M128 0v-1118h290v195h12c54-169 184-238 367-200v268c-27-8-86-15-130-15-138 0-239 95-239 234V0H128" id="V"/><g id="b"><use transform="matrix(0.010850694444444444,0,0,0.010850694444444444,0,0)" xlink:href="#O"/><use transform="matrix(0.010850694444444444,0,0,0.010850694444444444,16.438802083333332,0)" xlink:href="#P"/><use transform="matrix(0.010850694444444444,0,0,0.010850694444444444,30.067274305555554,0)" xlink:href="#Q"/><use transform="matrix(0.010850694444444444,0,0,0.010850694444444444,43.90190972222222,0)" xlink:href="#R"/><use transform="matrix(0.010850694444444444,0,0,0.010850694444444444,56.34765625,0)" xlink:href="#S"/><use transform="matrix(0.010850694444444444,0,0,0.010850694444444444,70.18229166666667,0)" xlink:href="#T"/><use transform="matrix(0.010850694444444444,0,0,0.010850694444444444,90.46223958333334,0)" xlink:href="#U"/><use transform="matrix(0.010850694444444444,0,0,0.010850694444444444,103.70008680555557,0)" xlink:href="#V"/><use transform="matrix(0.010850694444444444,0,0,0.010850694444444444,112.74956597222224,0)" xlink:href="#R"/></g><filter id="a" filterUnits="objectBoundingBox" x="-.01" y="-.03" width="1.02" height="1.13"><feOffset result="offOut" in="SourceAlpha" dy="6"/><feGaussianBlur result="blurOut" in="offOut" stdDeviation="5"/><feColorMatrix result="colorOut" in="blurOut" values="0 0 0 0 0 0 0 0 0 0 0 0 0 0 0 0 0 0 0.5019607843137255 0"/><feBlend in="SourceGraphic" in2="colorOut"/></filter><path fill="#4c535d" d="M135 0v-1490h980v253H440v416h609v249H440V0H135" id="W"/><path fill="#4c535d" d="M537 19C279 19 81-185 81-557c0-382 206-575 454-575 190 0 278 113 318 202h10v-560h300V0H868v-179h-15C812-89 719 19 537 19zm92-241c153 0 240-134 240-336 0-203-86-334-240-334-158 0-240 138-240 334 0 197 84 336 240 336" id="X"/><path fill="#4c535d" d="M440 22C227 22 68-92 68-313c0-250 202-322 422-343 195-21 271-24 271-105 0-95-63-149-175-149-116 0-187 57-211 129l-275-46c57-194 237-305 487-305 240 0 474 108 474 379V0H777v-155h-10C713-51 605 22 440 22zm85-211c140 0 238-93 238-211v-121c-37 26-156 42-222 51-111 16-185 59-185 149 0 87 70 132 169 132" id="Y"/><path fill="#4c535d" d="M683-1118v229H474v562c0 71 29 104 102 104 23 0 73-7 95-13l43 225C647 9 580 16 520 16 296 16 174-96 174-301v-588H20v-229h154v-266h300v266h209" id="Z"/><path fill="#4c535d" d="M428-1490V0H128v-1490h300" id="aa"/><g id="d"><use transform="matrix(0.010850694444444444,0,0,0.010850694444444444,0,0)" xlink:href="#W"/><use transform="matrix(0.010850694444444444,0,0,0.010850694444444444,12.293836805555555,0)" xlink:href="#S"/><use transform="matrix(0.010850694444444444,0,0,0.010850694444444444,26.12847222222222,0)" xlink:href="#Q"/><use transform="matrix(0.010850694444444444,0,0,0.010850694444444444,39.963107638888886,0)" xlink:href="#X"/><use transform="matrix(0.010850694444444444,0,0,0.010850694444444444,53.971354166666664,0)" xlink:href="#Y"/><use transform="matrix(0.010850694444444444,0,0,0.010850694444444444,66.87282986111111,0)" xlink:href="#T"/><use transform="matrix(0.010850694444444444,0,0,0.010850694444444444,87.15277777777777,0)" xlink:href="#U"/><use transform="matrix(0.010850694444444444,0,0,0.010850694444444444,100.390625,0)" xlink:href="#Q"/><use transform="matrix(0.010850694444444444,0,0,0.010850694444444444,114.22526041666666,0)" xlink:href="#Z"/><use transform="matrix(0.010850694444444444,0,0,0.010850694444444444,122.47178819444444,0)" xlink:href="#Y"/><use transform="matrix(0.010850694444444444,0,0,0.010850694444444444,135.37326388888889,0)" xlink:href="#aa"/></g><path fill="#4c535d" d="M681 22C323 22 94-145 85-462h297c10 151 131 226 296 226 163 0 271-77 271-190 0-102-95-149-257-189l-164-41c-252-61-403-188-403-405 0-269 236-449 560-449 330 0 546 183 551 445H941c-11-119-106-188-259-188-156 0-244 72-244 172-3 156 226 185 373 221 250 61 445 186 445 436 0 271-213 446-575 446" id="ab"/><path fill="#4c535d" d="M443 0L31-1118h319c90 293 199 572 268 885 66-313 175-593 264-885h315L784 0H443" id="ac"/><path fill="#4c535d" d="M128 0v-1118h300V0H128zm150-1264c-91 0-165-68-165-154 0-85 74-154 165-154 90 0 165 69 165 154 0 86-75 154-165 154" id="ad"/><path fill="#4c535d" d="M628 22C291 22 81-210 81-554c0-346 210-578 547-578 265 0 455 142 497 372l-279 52c-25-116-99-188-215-188-160 0-244 139-244 341 0 200 84 341 244 341 116 0 193-74 217-195l279 51C1085-123 896 22 628 22" id="ae"/><g id="e"><use transform="matrix(0.010850694444444444,0,0,0.010850694444444444,0,0)" xlink:href="#ab"/><use transform="matrix(0.010850694444444444,0,0,0.010850694444444444,14.55078125,0)" xlink:href="#U"/><use transform="matrix(0.010850694444444444,0,0,0.010850694444444444,27.78862847222222,0)" xlink:href="#V"/><use transform="matrix(0.010850694444444444,0,0,0.010850694444444444,37.18532986111111,0)" xlink:href="#ac"/><use transform="matrix(0.010850694444444444,0,0,0.010850694444444444,50.509982638888886,0)" xlink:href="#ad"/><use transform="matrix(0.010850694444444444,0,0,0.010850694444444444,56.53211805555555,0)" xlink:href="#ae"/><use transform="matrix(0.010850694444444444,0,0,0.010850694444444444,69.6072048611111,0)" xlink:href="#U"/><use transform="matrix(0.010850694444444444,0,0,0.010850694444444444,82.84505208333331,0)" xlink:href="#R"/></g><filter id="c" filterUnits="objectBoundingBox" x="-.01" y="-.01" width="1.02" height="1.07"><feOffset result="offOut" in="SourceAlpha" dy="6"/><feGaussianBlur result="blurOut" in="offOut" stdDeviation="5"/><feColorMatrix result="colorOut" in="blurOut" values="0 0 0 0 0 0 0 0 0 0 0 0 0 0 0 0 0 0 0.5019607843137255 0"/><feBlend in="SourceGraphic" in2="colorOut"/></filter><path fill="#4c535d" d="M135 0v-1490h581c339 0 533 210 533 503 0 295-197 500-540 500H440V0H135zm305-733h220c186 0 274-104 274-254s-88-251-275-251H440v505" id="af"/><path fill="#4c535d" d="M42 0l360-574-338-544h324c72 124 151 261 209 394 58-134 140-271 215-394h318L785-570 1146 0H824c-79-136-169-280-234-425C528-278 439-134 360 0H42" id="ag"/><path fill="#4c535d" d="M120 396l69-226c123 42 245 23 254-107l8-60L31-1118h319c87 288 199 559 259 872 72-308 185-583 277-872h315L726 132c-68 181-186 294-410 294-79 0-153-13-196-30" id="ah"/><g id="g"><use transform="matrix(0.010850694444444444,0,0,0.010850694444444444,0,0)" xlink:href="#af"/><use transform="matrix(0.010850694444444444,0,0,0.010850694444444444,14.398871527777777,0)" xlink:href="#V"/><use transform="matrix(0.010850694444444444,0,0,0.010850694444444444,22.90581597222222,0)" xlink:href="#P"/><use transform="matrix(0.010850694444444444,0,0,0.010850694444444444,36.08940972222222,0)" xlink:href="#ag"/><use transform="matrix(0.010850694444444444,0,0,0.010850694444444444,48.98003472222222,0)" xlink:href="#ah"/></g><path fill="#4c535d" d="M169-607c0-330 107-732 258-974h279c-145 311-231 674-231 974 0 262 67 512 231 886H427C258-1 169-307 169-607" id="ai"/><path fill="#4c535d" d="M49 0l509-1490h400L1480 0h-339l-115-346H497L386 0H49zm524-585h374c-75-213-124-402-192-666-66 268-110 453-182 666" id="aj"/><path fill="#4c535d" d="M440-1490V0H135v-1490h305" id="ak"/><g id="h"><use transform="matrix(0.010850694444444444,0,0,0.010850694444444444,0,0)" xlink:href="#ai"/><use transform="matrix(0.010850694444444444,0,0,0.010850694444444444,8.37673611111111,0)" xlink:href="#aj"/><use transform="matrix(0.010850694444444444,0,0,0.010850694444444444,24.967447916666664,0)" xlink:href="#af"/><use transform="matrix(0.010850694444444444,0,0,0.010850694444444444,39.36631944444444,0)" xlink:href="#ak"/></g><path fill="#4c535d" d="M135 0v-1490h581c339 0 533 192 533 485 0 204-94 351-264 424L1302 0H964L680-532H440V0H135zm305-779h220c186 0 274-77 274-226 0-150-88-233-275-233H440v459" id="al"/><path fill="#4c535d" d="M625 442c-280 0-454-114-503-274l258-72c28 63 97 128 243 128 153 0 246-69 246-216v-206h-23C805-108 717-16 536-16 284-16 81-191 81-561c0-378 208-571 456-571 188 0 280 113 321 202h13v-188h295V-9c0 303-226 451-541 451zm5-686c153 0 240-119 240-319 0-198-86-329-240-329-158 0-241 137-241 329 0 195 85 319 241 319" id="am"/><path fill="#4c535d" d="M67 279c166-379 230-627 230-886 0-300-86-663-230-974h278c151 241 258 644 258 974 0 302-90 608-258 886H67" id="an"/><g id="i"><use transform="matrix(0.010850694444444444,0,0,0.010850694444444444,0,0)" xlink:href="#al"/><use transform="matrix(0.010850694444444444,0,0,0.010850694444444444,14.322916666666666,0)" xlink:href="#P"/><use transform="matrix(0.010850694444444444,0,0,0.010850694444444444,27.95138888888889,0)" xlink:href="#S"/><use transform="matrix(0.010850694444444444,0,0,0.010850694444444444,41.78602430555555,0)" xlink:href="#Z"/><use transform="matrix(0.010850694444444444,0,0,0.010850694444444444,49.924045138888886,0)" xlink:href="#ad"/><use transform="matrix(0.010850694444444444,0,0,0.010850694444444444,55.94618055555555,0)" xlink:href="#Q"/><use transform="matrix(0.010850694444444444,0,0,0.010850694444444444,69.78081597222221,0)" xlink:href="#am"/><use transform="matrix(0.010850694444444444,0,0,0.010850694444444444,83.82161458333333,0)" xlink:href="#an"/></g><filter id="f" filterUnits="objectBoundingBox" x="-.01" y="-.07" width="1.03" height="1.33"><feOffset result="offOut" in="SourceAlpha" dy="6"/><feGaussianBlur result="blurOut" in="offOut" stdDeviation="5"/><feColorMatrix result="colorOut" in="blurOut" values="0 0 0 0 0 0 0 0 0 0 0 0 0 0 0 0 0 0 0.5019607843137255 0"/><feBlend in="SourceGraphic" in2="colorOut"/></filter><g id="j"><use transform="matrix(0.010850694444444444,0,0,0.010850694444444444,0,0)" xlink:href="#O"/><use transform="matrix(0.010850694444444444,0,0,0.010850694444444444,16.438802083333332,0)" xlink:href="#P"/><use transform="matrix(0.010850694444444444,0,0,0.010850694444444444,30.067274305555554,0)" xlink:href="#V"/><use transform="matrix(0.010850694444444444,0,0,0.010850694444444444,38.57421875,0)" xlink:href="#U"/></g><g id="l"><use transform="matrix(0.010850694444444444,0,0,0.010850694444444444,0,0)" xlink:href="#ak"/><use transform="matrix(0.010850694444444444,0,0,0.010850694444444444,6.239149305555555,0)" xlink:href="#X"/><use transform="matrix(0.010850694444444444,0,0,0.010850694444444444,20.247395833333332,0)" xlink:href="#U"/><use transform="matrix(0.010850694444444444,0,0,0.010850694444444444,33.48524305555556,0)" xlink:href="#Q"/><use transform="matrix(0.010850694444444444,0,0,0.010850694444444444,47.31987847222222,0)" xlink:href="#Z"/><use transform="matrix(0.010850694444444444,0,0,0.010850694444444444,55.45789930555556,0)" xlink:href="#ad"/><use transform="matrix(0.010850694444444444,0,0,0.010850694444444444,61.48003472222222,0)" xlink:href="#Z"/><use transform="matrix(0.010850694444444444,0,0,0.010850694444444444,70.10633680555556,0)" xlink:href="#ah"/></g><g id="m"><use transform="matrix(0.010850694444444444,0,0,0.010850694444444444,0,0)" xlink:href="#af"/><use transform="matrix(0.010850694444444444,0,0,0.010850694444444444,14.398871527777777,0)" xlink:href="#V"/><use transform="matrix(0.010850694444444444,0,0,0.010850694444444444,22.90581597222222,0)" xlink:href="#P"/><use transform="matrix(0.010850694444444444,0,0,0.010850694444444444,36.1328125,0)" xlink:href="#ac"/><use transform="matrix(0.010850694444444444,0,0,0.010850694444444444,49.45746527777778,0)" xlink:href="#ad"/><use transform="matrix(0.010850694444444444,0,0,0.010850694444444444,55.47960069444444,0)" xlink:href="#X"/><use transform="matrix(0.010850694444444444,0,0,0.010850694444444444,69.48784722222221,0)" xlink:href="#U"/><use transform="matrix(0.010850694444444444,0,0,0.010850694444444444,82.72569444444443,0)" xlink:href="#V"/><use transform="matrix(0.010850694444444444,0,0,0.010850694444444444,91.77517361111111,0)" xlink:href="#R"/></g><filter id="k" filterUnits="objectBoundingBox" x="-.05" y="-.02" width="1.09" height="1.09"><feOffset result="offOut" in="SourceAlpha" dy="6"/><feGaussianBlur result="blurOut" in="offOut" stdDeviation="5"/><feColorMatrix result="colorOut" in="blurOut" values="0 0 0 0 0 0 0 0 0 0 0 0 0 0 0 0 0 0 0.5019607843137255 0"/><feBlend in="SourceGraphic" in2="colorOut"/></filter><path fill="#4c535d" d="M135 0v-1490h468l242 684c30 94 76 293 111 455 34-161 80-360 110-455l238-684h470V0h-307c0-447-3-765 11-1227-122 503-246 788-395 1227H826C676-435 552-717 427-1215c15 453 11 775 11 1215H135" id="ao"/><g id="o"><use transform="matrix(0.010850694444444444,0,0,0.010850694444444444,0,0)" xlink:href="#ao"/><use transform="matrix(0.010850694444444444,0,0,0.010850694444444444,20.703125,0)" xlink:href="#U"/><use transform="matrix(0.010850694444444444,0,0,0.010850694444444444,33.94097222222222,0)" xlink:href="#Z"/><use transform="matrix(0.010850694444444444,0,0,0.010850694444444444,42.07899305555556,0)" xlink:href="#V"/><use transform="matrix(0.010850694444444444,0,0,0.010850694444444444,51.291232638888886,0)" xlink:href="#ad"/><use transform="matrix(0.010850694444444444,0,0,0.010850694444444444,57.31336805555555,0)" xlink:href="#ae"/><use transform="matrix(0.010850694444444444,0,0,0.010850694444444444,70.3884548611111,0)" xlink:href="#R"/></g><path fill="#4c535d" d="M789 20C394 20 94-260 94-744c0-487 300-766 695-766s695 279 695 766c0 485-300 764-695 764zm0-271c231 0 385-174 385-493 0-321-154-495-385-495s-385 175-385 495c0 319 154 493 385 493" id="ap"/><path fill="#4c535d" d="M754 19C571 19 479-89 437-179h-14V0H128v-1490h300v560h9c41-89 129-202 319-202 248 0 453 193 453 575 0 372-197 576-455 576zm-92-241c156 0 240-139 240-336 0-196-83-334-240-334-154 0-241 131-241 334 0 202 88 336 241 336" id="aq"/><g id="p"><use transform="matrix(0.010850694444444444,0,0,0.010850694444444444,0,0)" xlink:href="#ap"/><use transform="matrix(0.010850694444444444,0,0,0.010850694444444444,17.122395833333332,0)" xlink:href="#aq"/><use transform="matrix(0.010850694444444444,0,0,0.010850694444444444,31.130642361111104,0)" xlink:href="#R"/><use transform="matrix(0.010850694444444444,0,0,0.010850694444444444,43.576388888888886,0)" xlink:href="#U"/><use transform="matrix(0.010850694444444444,0,0,0.010850694444444444,56.81423611111111,0)" xlink:href="#V"/><use transform="matrix(0.010850694444444444,0,0,0.010850694444444444,66.2109375,0)" xlink:href="#ac"/><use transform="matrix(0.010850694444444444,0,0,0.010850694444444444,79.31857638888889,0)" xlink:href="#Y"/><use transform="matrix(0.010850694444444444,0,0,0.010850694444444444,92.22005208333333,0)" xlink:href="#aq"/><use transform="matrix(0.010850694444444444,0,0,0.010850694444444444,106.22829861111111,0)" xlink:href="#ad"/><use transform="matrix(0.010850694444444444,0,0,0.010850694444444444,112.25043402777777,0)" xlink:href="#aa"/><use transform="matrix(0.010850694444444444,0,0,0.010850694444444444,118.27256944444444,0)" xlink:href="#ad"/><use transform="matrix(0.010850694444444444,0,0,0.010850694444444444,124.2947048611111,0)" xlink:href="#Z"/><use transform="matrix(0.010850694444444444,0,0,0.010850694444444444,132.92100694444446,0)" xlink:href="#ah"/></g><filter id="n" filterUnits="objectBoundingBox" x="-.05" y="-.02" width="1.09" height="1.11"><feOffset result="offOut" in="SourceAlpha" dy="6"/><feGaussianBlur result="blurOut" in="offOut" stdDeviation="5"/><feColorMatrix result="colorOut" in="blurOut" values="0 0 0 0 0 0 0 0 0 0 0 0 0 0 0 0 0 0 0.5019607843137255 0"/><feBlend in="SourceGraphic" in2="colorOut"/></filter><path fill="#4c535d" d="M659 0H135v-1490h529c448 0 721 280 721 744 0 466-273 746-726 746zM440-263h204c287 0 437-148 437-483 0-333-150-481-435-481H440v964" id="ar"/><g id="q"><use transform="matrix(0.010850694444444444,0,0,0.010850694444444444,0,0)" xlink:href="#ar"/><use transform="matrix(0.010850694444444444,0,0,0.010850694444444444,16.048177083333332,0)" xlink:href="#Y"/><use transform="matrix(0.010850694444444444,0,0,0.010850694444444444,28.949652777777775,0)" xlink:href="#Z"/><use transform="matrix(0.010850694444444444,0,0,0.010850694444444444,37.19618055555556,0)" xlink:href="#Y"/></g><g id="r"><use transform="matrix(0.010850694444444444,0,0,0.010850694444444444,0,0)" xlink:href="#aj"/><use transform="matrix(0.010850694444444444,0,0,0.010850694444444444,16.080729166666664,0)" xlink:href="#ae"/><use transform="matrix(0.010850694444444444,0,0,0.010850694444444444,29.15581597222222,0)" xlink:href="#ae"/><use transform="matrix(0.010850694444444444,0,0,0.010850694444444444,42.23090277777778,0)" xlink:href="#U"/><use transform="matrix(0.010850694444444444,0,0,0.010850694444444444,55.46875,0)" xlink:href="#R"/><use transform="matrix(0.010850694444444444,0,0,0.010850694444444444,67.91449652777777,0)" xlink:href="#R"/></g><path fill="#4c535d" d="M135 0v-1490h305v1237h643V0H135" id="as"/><g id="s"><use transform="matrix(0.010850694444444444,0,0,0.010850694444444444,0,0)" xlink:href="#as"/><use transform="matrix(0.010850694444444444,0,0,0.010850694444444444,12.565104166666666,0)" xlink:href="#Y"/><use transform="matrix(0.010850694444444444,0,0,0.010850694444444444,25.08680555555556,0)" xlink:href="#ah"/><use transform="matrix(0.010850694444444444,0,0,0.010850694444444444,38.064236111111114,0)" xlink:href="#U"/><use transform="matrix(0.010850694444444444,0,0,0.010850694444444444,51.30208333333333,0)" xlink:href="#V"/></g><path fill="#4c535d" d="M789 20C394 20 94-260 94-744c0-487 300-766 695-766s695 279 695 766c0 264-89 467-233 597l215 271h-285L1058-29C976 3 886 20 789 20zm-94-532h261l108 139c70-83 110-208 110-371 0-321-154-495-385-495s-385 175-385 495c0 356 184 537 481 482" id="at"/><g id="u"><use transform="matrix(0.010850694444444444,0,0,0.010850694444444444,0,0)" xlink:href="#ab"/><use transform="matrix(0.010850694444444444,0,0,0.010850694444444444,14.55078125,0)" xlink:href="#at"/><use transform="matrix(0.010850694444444444,0,0,0.010850694444444444,31.81423611111111,0)" xlink:href="#as"/></g><g id="v"><use transform="matrix(0.010850694444444444,0,0,0.010850694444444444,0,0)" xlink:href="#ar"/><use transform="matrix(0.010850694444444444,0,0,0.010850694444444444,16.048177083333332,0)" xlink:href="#Y"/><use transform="matrix(0.010850694444444444,0,0,0.010850694444444444,28.949652777777775,0)" xlink:href="#Z"/><use transform="matrix(0.010850694444444444,0,0,0.010850694444444444,37.19618055555556,0)" xlink:href="#Y"/><use transform="matrix(0.010850694444444444,0,0,0.010850694444444444,50.09765625,0)" xlink:href="#aq"/><use transform="matrix(0.010850694444444444,0,0,0.010850694444444444,64.32291666666666,0)" xlink:href="#Y"/><use transform="matrix(0.010850694444444444,0,0,0.010850694444444444,77.2243923611111,0)" xlink:href="#R"/><use transform="matrix(0.010850694444444444,0,0,0.010850694444444444,89.67013888888887,0)" xlink:href="#U"/></g><filter id="t" filterUnits="objectBoundingBox" x="-.05" y="-.07" width="1.1" height="1.33"><feOffset result="offOut" in="SourceAlpha" dy="6"/><feGaussianBlur result="blurOut" in="offOut" stdDeviation="5"/><feColorMatrix result="colorOut" in="blurOut" values="0 0 0 0 0 0 0 0 0 0 0 0 0 0 0 0 0 0 0.5019607843137255 0"/><feBlend in="SourceGraphic" in2="colorOut"/></filter><path fill="#4c535d" d="M128 0v-1490h300v802h17l366-430h347L740-633 1179 0H826L514-456l-86 97V0H128" id="au"/><path fill="#4c535d" d="M818-733v240H140v-240h678" id="av"/><g id="w"><use transform="matrix(0.010850694444444444,0,0,0.010850694444444444,0,0)" xlink:href="#au"/><use transform="matrix(0.010850694444444444,0,0,0.010850694444444444,11.610243055555555,0)" xlink:href="#av"/><use transform="matrix(0.010850694444444444,0,0,0.010850694444444444,22.005208333333332,0)" xlink:href="#ac"/></g><g id="x"><use transform="matrix(0.010850694444444444,0,0,0.010850694444444444,0,0)" xlink:href="#R"/><use transform="matrix(0.010850694444444444,0,0,0.010850694444444444,12.445746527777777,0)" xlink:href="#Z"/><use transform="matrix(0.010850694444444444,0,0,0.010850694444444444,20.36675347222222,0)" xlink:href="#P"/><use transform="matrix(0.010850694444444444,0,0,0.010850694444444444,33.99522569444444,0)" xlink:href="#V"/><use transform="matrix(0.010850694444444444,0,0,0.010850694444444444,42.740885416666664,0)" xlink:href="#Y"/><use transform="matrix(0.010850694444444444,0,0,0.010850694444444444,55.64236111111111,0)" xlink:href="#am"/><use transform="matrix(0.010850694444444444,0,0,0.010850694444444444,69.68315972222221,0)" xlink:href="#U"/></g><g id="y"><use transform="matrix(0.010850694444444444,0,0,0.010850694444444444,0,0)" xlink:href="#ab"/><use transform="matrix(0.010850694444444444,0,0,0.010850694444444444,14.55078125,0)" xlink:href="#Z"/><use transform="matrix(0.010850694444444444,0,0,0.010850694444444444,22.471788194444443,0)" xlink:href="#P"/><use transform="matrix(0.010850694444444444,0,0,0.010850694444444444,36.100260416666664,0)" xlink:href="#V"/><use transform="matrix(0.010850694444444444,0,0,0.010850694444444444,44.845920138888886,0)" xlink:href="#Y"/><use transform="matrix(0.010850694444444444,0,0,0.010850694444444444,57.74739583333333,0)" xlink:href="#am"/><use transform="matrix(0.010850694444444444,0,0,0.010850694444444444,71.78819444444444,0)" xlink:href="#U"/></g><path fill="#4c535d" d="M567 20C257 20 68-148 68-448v-87h305v92c0 143 75 217 194 217s193-74 193-218v-1046h302v1041c0 301-188 469-495 469" id="aw"/><g id="A"><use transform="matrix(0.010850694444444444,0,0,0.010850694444444444,0,0)" xlink:href="#aw"/><use transform="matrix(0.010850694444444444,0,0,0.010850694444444444,12.98828125,0)" xlink:href="#P"/><use transform="matrix(0.010850694444444444,0,0,0.010850694444444444,26.61675347222222,0)" xlink:href="#aq"/></g><g id="B"><use transform="matrix(0.010850694444444444,0,0,0.010850694444444444,0,0)" xlink:href="#ab"/><use transform="matrix(0.010850694444444444,0,0,0.010850694444444444,14.55078125,0)" xlink:href="#U"/><use transform="matrix(0.010850694444444444,0,0,0.010850694444444444,27.78862847222222,0)" xlink:href="#V"/><use transform="matrix(0.010850694444444444,0,0,0.010850694444444444,37.18532986111111,0)" xlink:href="#ac"/><use transform="matrix(0.010850694444444444,0,0,0.010850694444444444,50.509982638888886,0)" xlink:href="#ad"/><use transform="matrix(0.010850694444444444,0,0,0.010850694444444444,56.53211805555555,0)" xlink:href="#ae"/><use transform="matrix(0.010850694444444444,0,0,0.010850694444444444,69.6072048611111,0)" xlink:href="#U"/></g><filter id="z" filterUnits="objectBoundingBox" x="-.03" y="-.07" width="1.06" height="1.33"><feOffset result="offOut" in="SourceAlpha" dy="6"/><feGaussianBlur result="blurOut" in="offOut" stdDeviation="5"/><feColorMatrix result="colorOut" in="blurOut" values="0 0 0 0 0 0 0 0 0 0 0 0 0 0 0 0 0 0 0.5019607843137255 0"/><feBlend in="SourceGraphic" in2="colorOut"/></filter><g id="D"><use transform="matrix(0.010850694444444444,0,0,0.010850694444444444,0,0)" xlink:href="#al"/><use transform="matrix(0.010850694444444444,0,0,0.010850694444444444,14.322916666666666,0)" xlink:href="#U"/><use transform="matrix(0.010850694444444444,0,0,0.010850694444444444,27.56076388888889,0)" xlink:href="#am"/><use transform="matrix(0.010850694444444444,0,0,0.010850694444444444,41.6015625,0)" xlink:href="#ad"/><use transform="matrix(0.010850694444444444,0,0,0.010850694444444444,47.623697916666664,0)" xlink:href="#R"/><use transform="matrix(0.010850694444444444,0,0,0.010850694444444444,60.06944444444444,0)" xlink:href="#Z"/><use transform="matrix(0.010850694444444444,0,0,0.010850694444444444,68.20746527777777,0)" xlink:href="#V"/><use transform="matrix(0.010850694444444444,0,0,0.010850694444444444,77.60416666666667,0)" xlink:href="#ah"/></g><path fill="#4c535d" d="M128 418v-1536h295v188h14c41-89 129-202 319-202 248 0 453 193 453 575 0 372-197 576-455 576-183 0-275-108-317-198h-9v597H128zm534-640c156 0 240-139 240-336 0-196-83-334-240-334-154 0-241 131-241 334 0 202 88 336 241 336" id="ax"/><g id="E"><use transform="matrix(0.010850694444444444,0,0,0.010850694444444444,0,0)" xlink:href="#ax"/><use transform="matrix(0.010850694444444444,0,0,0.010850694444444444,14.008246527777777,0)" xlink:href="#V"/><use transform="matrix(0.010850694444444444,0,0,0.010850694444444444,22.51519097222222,0)" xlink:href="#P"/><use transform="matrix(0.010850694444444444,0,0,0.010850694444444444,35.7421875,0)" xlink:href="#ac"/><use transform="matrix(0.010850694444444444,0,0,0.010850694444444444,49.06684027777778,0)" xlink:href="#ad"/><use transform="matrix(0.010850694444444444,0,0,0.010850694444444444,55.08897569444444,0)" xlink:href="#X"/><use transform="matrix(0.010850694444444444,0,0,0.010850694444444444,69.09722222222221,0)" xlink:href="#U"/><use transform="matrix(0.010850694444444444,0,0,0.010850694444444444,82.33506944444443,0)" xlink:href="#V"/><use transform="matrix(0.010850694444444444,0,0,0.010850694444444444,91.38454861111111,0)" xlink:href="#R"/></g><filter id="C" filterUnits="objectBoundingBox" x="-.05" y="-.05" width="1.09" height="1.25"><feOffset result="offOut" in="SourceAlpha" dy="6"/><feGaussianBlur result="blurOut" in="offOut" stdDeviation="5"/><feColorMatrix result="colorOut" in="blurOut" values="0 0 0 0 0 0 0 0 0 0 0 0 0 0 0 0 0 0 0.5019607843137255 0"/><feBlend in="SourceGraphic" in2="colorOut"/></filter><g id="G"><use transform="matrix(0.010850694444444444,0,0,0.010850694444444444,0,0)" xlink:href="#ab"/><use transform="matrix(0.010850694444444444,0,0,0.010850694444444444,14.55078125,0)" xlink:href="#ae"/><use transform="matrix(0.010850694444444444,0,0,0.010850694444444444,27.842881944444443,0)" xlink:href="#Y"/><use transform="matrix(0.010850694444444444,0,0,0.010850694444444444,40.744357638888886,0)" xlink:href="#Q"/></g><filter id="F" filterUnits="objectBoundingBox" x="-.05" y="-.06" width="1.09" height="1.29"><feOffset result="offOut" in="SourceAlpha" dy="6"/><feGaussianBlur result="blurOut" in="offOut" stdDeviation="5"/><feColorMatrix result="colorOut" in="blurOut" values="0 0 0 0 0 0 0 0 0 0 0 0 0 0 0 0 0 0 0.5019607843137255 0"/><feBlend in="SourceGraphic" in2="colorOut"/></filter><g id="H"><use transform="matrix(0.010850694444444444,0,0,0.010850694444444444,0,0)" xlink:href="#af"/><use transform="matrix(0.010850694444444444,0,0,0.010850694444444444,14.214409722222221,0)" xlink:href="#P"/><use transform="matrix(0.010850694444444444,0,0,0.010850694444444444,27.842881944444443,0)" xlink:href="#V"/><use transform="matrix(0.010850694444444444,0,0,0.010850694444444444,37.326388888888886,0)" xlink:href="#Z"/><use transform="matrix(0.010850694444444444,0,0,0.010850694444444444,45.572916666666664,0)" xlink:href="#Y"/><use transform="matrix(0.010850694444444444,0,0,0.010850694444444444,58.47439236111111,0)" xlink:href="#aa"/></g><path fill="#4c535d" d="M768-1560L288 224H28l480-1784h260" id="ay"/><g id="J"><use transform="matrix(0.010850694444444444,0,0,0.010850694444444444,0,0)" xlink:href="#aj"/><use transform="matrix(0.010850694444444444,0,0,0.010850694444444444,16.590711805555554,0)" xlink:href="#ar"/><use transform="matrix(0.010850694444444444,0,0,0.010850694444444444,31.75998263888889,0)" xlink:href="#ay"/><use transform="matrix(0.010850694444444444,0,0,0.010850694444444444,40.386284722222214,0)" xlink:href="#as"/><use transform="matrix(0.010850694444444444,0,0,0.010850694444444444,52.95138888888888,0)" xlink:href="#ar"/><use transform="matrix(0.010850694444444444,0,0,0.010850694444444444,68.06640624999999,0)" xlink:href="#aj"/><use transform="matrix(0.010850694444444444,0,0,0.010850694444444444,84.65711805555554,0)" xlink:href="#af"/></g><filter id="I" filterUnits="objectBoundingBox" x="-.06" y="-.07" width="1.11" height="1.33"><feOffset result="offOut" in="SourceAlpha" dy="6"/><feGaussianBlur result="blurOut" in="offOut" stdDeviation="5"/><feColorMatrix result="colorOut" in="blurOut" values="0 0 0 0 0 0 0 0 0 0 0 0 0 0 0 0 0 0 0.5019607843137255 0"/><feBlend in="SourceGraphic" in2="colorOut"/></filter><g id="K"><use transform="matrix(0.010850694444444444,0,0,0.010850694444444444,0,0)" xlink:href="#ap"/><use transform="matrix(0.010850694444444444,0,0,0.010850694444444444,17.122395833333332,0)" xlink:href="#ak"/><use transform="matrix(0.010850694444444444,0,0,0.010850694444444444,23.36154513888889,0)" xlink:href="#ar"/><use transform="matrix(0.010850694444444444,0,0,0.010850694444444444,39.409722222222214,0)" xlink:href="#O"/></g><path fill="#4c535d" d="M428-647V0H128v-1490h294v586c65-146 175-228 341-228 232 0 385 159 385 421V0H847v-659c0-139-76-222-202-222-128 0-217 86-217 234" id="az"/><g id="L"><use transform="matrix(0.010850694444444444,0,0,0.010850694444444444,0,0)" xlink:href="#af"/><use transform="matrix(0.010850694444444444,0,0,0.010850694444444444,14.398871527777777,0)" xlink:href="#V"/><use transform="matrix(0.010850694444444444,0,0,0.010850694444444444,22.90581597222222,0)" xlink:href="#P"/><use transform="matrix(0.010850694444444444,0,0,0.010850694444444444,36.53428819444444,0)" xlink:href="#T"/><use transform="matrix(0.010850694444444444,0,0,0.010850694444444444,56.81423611111111,0)" xlink:href="#U"/><use transform="matrix(0.010850694444444444,0,0,0.010850694444444444,70.05208333333333,0)" xlink:href="#Z"/><use transform="matrix(0.010850694444444444,0,0,0.010850694444444444,78.24435763888889,0)" xlink:href="#az"/><use transform="matrix(0.010850694444444444,0,0,0.010850694444444444,92.07899305555556,0)" xlink:href="#U"/><use transform="matrix(0.010850694444444444,0,0,0.010850694444444444,105.31684027777777,0)" xlink:href="#S"/><use transform="matrix(0.010850694444444444,0,0,0.010850694444444444,119.15147569444444,0)" xlink:href="#R"/></g><path fill="#4c535d" d="M75-1237v-253h1217v253H837V0H531v-1237H75" id="aA"/><g id="N"><use transform="matrix(0.010850694444444444,0,0,0.010850694444444444,0,0)" xlink:href="#aA"/><use transform="matrix(0.010850694444444444,0,0,0.010850694444444444,13.57421875,0)" xlink:href="#V"/><use transform="matrix(0.010850694444444444,0,0,0.010850694444444444,22.786458333333332,0)" xlink:href="#ad"/><use transform="matrix(0.010850694444444444,0,0,0.010850694444444444,28.80859375,0)" xlink:href="#ac"/><use transform="matrix(0.010850694444444444,0,0,0.010850694444444444,42.13324652777778,0)" xlink:href="#ah"/></g><filter id="M" filterUnits="objectBoundingBox" x="-.03" y="-.07" width="1.06" height="1.33"><feOffset result="offOut" in="SourceAlpha" dy="6"/><feGaussianBlur result="blurOut" in="offOut" stdDeviation="5"/><feColorMatrix result="colorOut" in="blurOut" values="0 0 0 0 0 0 0 0 0 0 0 0 0 0 0 0 0 0 0.5019607843137255 0"/><feBlend in="SourceGraphic" in2="colorOut"/></filter></defs></g></svg>